<svg version="1.1" xmlns="http://www.w3.org/2000/svg" xmlns:xlink="http://www.w3.org/1999/xlink" x="0px" y="0px"
	 viewBox="0 0 511 511" style="enable-background:new 0 0 511 511;" xml:space="preserve">
<g>
	<path d="M367,46c54,0,98,44,98,98v223c0,54-44,98-98,98H144c-54,0-98-44-98-98V144c0-54,44-98,98-98H367 M367,0H144
		C64.5,0,0,64.5,0,144v223c0,79.5,64.5,144,144,144h223c79.5,0,144-64.5,144-144V144C511,64.5,446.5,0,367,0L367,0z" fill="#2ea790"/>

	<path d="M255.5,170.3c47,0,85.2,38.2,85.2,85.2c0,47-38.2,85.2-85.2,85.2c-47,0-85.2-38.2-85.2-85.2
			C170.3,208.5,208.5,170.3,255.5,170.3 M255.5,124.3L255.5,124.3c-72.5,0-131.2,58.7-131.2,131.2v0c0,72.5,58.7,131.2,131.2,131.2
			h0c72.5,0,131.2-58.7,131.2-131.2v0C386.7,183,328,124.3,255.5,124.3L255.5,124.3z" fill="#2ea790"/>

	<path d="M423.6,119.1c0,16.9-13.7,30.6-30.6,30.6c-16.9,0-30.6-13.7-30.6-30.6c0-16.9,13.7-30.6,30.6-30.6
		C409.8,88.4,423.6,102.2,423.6,119.1z" fill="#2ea790"/>
</g>
</svg>
