<?xml version="1.0" encoding="utf-8"?>
<!-- Generator: Adobe Illustrator 21.0.0, SVG Export Plug-In . SVG Version: 6.00 Build 0)  -->
<svg version="1.1" id="Layer_1" xmlns="http://www.w3.org/2000/svg" xmlns:xlink="http://www.w3.org/1999/xlink" x="0px" y="0px"
	 viewBox="0 0 2074 280" style="enable-background:new 0 0 2074 280;" xml:space="preserve">
<style type="text/css">
	.st0{font-family:'OpenSans-Regular';}
	.st1{font-size:47.6987px;}
	.st2{fill:none;stroke:#C8C8C8;stroke-width:5;stroke-miterlimit:10;}
	.st3{fill:#2C1F71;}
	.st4{fill:#FFFFFF;}
</style>
<g>
	<text transform="matrix(1 0 0 1 7.7676 70.8574)" class="st0 st1">Planning</text>
	<text transform="matrix(1 0 0 1 324.0446 250.8574)" class="st0 st1">User Research</text>
	<text transform="matrix(1 0 0 1 786.1274 70.8574)" class="st0 st1">Initial Prototyping</text>
	<text transform="matrix(1 0 0 1 1284.8776 250.8574)" class="st0 st1">User Testing</text>
	<text transform="matrix(1 0 0 1 1667.5366 70.8574)" class="st0 st1">Final Deliverables</text>
	<line class="st2" x1="120" y1="146" x2="1880" y2="146"/>
	<g>
		<path class="st3" d="M107,170c-13.2,0-24-10.8-24-24s10.8-24,24-24s24,10.8,24,24S120.2,170,107,170z"/>
		<path class="st4" d="M107,127c10.5,0,19,8.5,19,19s-8.5,19-19,19s-19-8.5-19-19S96.5,127,107,127 M107,117c-16,0-29,13-29,29
			s13,29,29,29s29-13,29-29S123,117,107,117L107,117z"/>
	</g>
	<g>
		<path class="st3" d="M484,170c-13.2,0-24-10.8-24-24s10.8-24,24-24s24,10.8,24,24S497.2,170,484,170z"/>
		<path class="st4" d="M484,127c10.5,0,19,8.5,19,19s-8.5,19-19,19s-19-8.5-19-19S473.5,127,484,127 M484,117c-16,0-29,13-29,29
			s13,29,29,29s29-13,29-29S500,117,484,117L484,117z"/>
	</g>
	<g>
		<path class="st3" d="M984,170c-13.2,0-24-10.8-24-24s10.8-24,24-24s24,10.8,24,24S997.2,170,984,170z"/>
		<path class="st4" d="M984,127c10.5,0,19,8.5,19,19s-8.5,19-19,19s-19-8.5-19-19S973.5,127,984,127 M984,117c-16,0-29,13-29,29
			s13,29,29,29s29-13,29-29S1000,117,984,117L984,117z"/>
	</g>
	<g>
		<path class="st3" d="M1423,170c-13.2,0-24-10.8-24-24s10.8-24,24-24s24,10.8,24,24S1436.2,170,1423,170z"/>
		<path class="st4" d="M1423,127c10.5,0,19,8.5,19,19s-8.5,19-19,19s-19-8.5-19-19S1412.5,127,1423,127 M1423,117c-16,0-29,13-29,29
			s13,29,29,29s29-13,29-29S1439,117,1423,117L1423,117z"/>
	</g>
	<g>
		<path class="st3" d="M1880,170c-13.2,0-24-10.8-24-24s10.8-24,24-24s24,10.8,24,24S1893.2,170,1880,170z"/>
		<path class="st4" d="M1880,127c10.5,0,19,8.5,19,19s-8.5,19-19,19s-19-8.5-19-19S1869.5,127,1880,127 M1880,117c-16,0-29,13-29,29
			s13,29,29,29s29-13,29-29S1896,117,1880,117L1880,117z"/>
	</g>
</g>
</svg>
