<?xml version="1.0" encoding="utf-8"?>
<!-- Generator: Adobe Illustrator 22.0.1, SVG Export Plug-In . SVG Version: 6.00 Build 0)  -->
<svg version="1.1" xmlns="http://www.w3.org/2000/svg" xmlns:xlink="http://www.w3.org/1999/xlink" x="0px" y="0px"
	 viewBox="0 0 90 90" enable-background="new 0 0 90 90" xml:space="preserve">
<g id="Layer_2">
</g>
<g id="Layer_1">
	<path d="M73.467,48.56c0-3.938-3.029-7.182-6.879-7.525c0.859-1.226,1.364-2.718,1.364-4.325c0-4.166-3.388-7.555-7.554-7.555
		H50.112V18.431c0-4.547-3.699-8.245-8.245-8.245c-4.547,0-8.246,3.699-8.246,8.245v10.724H18.162c-0.9,0-1.629,0.729-1.629,1.629
		v47.401c0,0.9,0.73,1.629,1.629,1.629h37.664c4.166,0,7.554-3.389,7.554-7.555c0-1.663-0.54-3.202-1.454-4.451
		c3.435-0.709,6.025-3.757,6.025-7.399c0-1.608-0.505-3.1-1.364-4.325C70.438,55.741,73.467,52.497,73.467,48.56z M36.881,18.431
		c0-2.75,2.237-4.986,4.987-4.986s4.986,2.237,4.986,4.986v10.724h-9.973V18.431z M65.913,52.855h-0.65h-7.727H46.597
		c-0.9,0-1.629,0.729-1.629,1.629s0.73,1.629,1.629,1.629h10.939h2.862c2.369,0,4.295,1.927,4.295,4.296s-1.926,4.296-4.295,4.296
		h-2.489h-4.943h-6.369c-0.9,0-1.629,0.729-1.629,1.629s0.73,1.629,1.629,1.629h6.369h2.861c2.369,0,4.295,1.927,4.295,4.296
		c0,2.369-1.926,4.296-4.295,4.296H19.792V32.413h40.606c2.369,0,4.295,1.927,4.295,4.296c0,2.369-1.926,4.296-4.295,4.296h-2.862
		H46.597c-0.9,0-1.629,0.729-1.629,1.629s0.73,1.629,1.629,1.629h10.939h7.727h0.65c2.369,0,4.295,1.927,4.295,4.296
		C70.208,50.928,68.282,52.855,65.913,52.855z"/>
</g>
</svg>
