<?xml version="1.0" encoding="utf-8"?>
<!-- Generator: Adobe Illustrator 22.0.1, SVG Export Plug-In . SVG Version: 6.00 Build 0)  -->
<svg version="1.1" xmlns="http://www.w3.org/2000/svg" xmlns:xlink="http://www.w3.org/1999/xlink" x="0px" y="0px"
	 viewBox="0 0 90 90" enable-background="new 0 0 90 90" xml:space="preserve">
<g id="Layer_2">
</g>
<g id="Layer_1">
	<g>
		<g>
			<path d="M77.003,3.015v83.97H12.997V3.015H77.003 M80.003,0.015H9.997v89.97h70.006V0.015L80.003,0.015z"/>
		</g>
	</g>
	<path d="M50.247,19.975l-4.981,6.455v49.401h0.016c0.204,2.548,2.342,4.559,4.942,4.559s4.738-2.011,4.942-4.559l0.016-49.397
		L50.247,19.975z M50.235,24.9l1.947,2.548v44.135h-3.916V27.452L50.235,24.9z M50.224,77.39c-1.08,0-1.958-0.878-1.958-1.958
		v-0.849h3.916v0.849C52.182,76.512,51.303,77.39,50.224,77.39z"/>
	<path d="M20.167,10v70h19.748V10H20.167z M36.915,77H23.167v-5.5h6.874c0.829,0,1.5-0.671,1.5-1.5s-0.671-1.5-1.5-1.5h-6.874v-7.11
		h3.02c0.829,0,1.5-0.671,1.5-1.5s-0.671-1.5-1.5-1.5h-3.02v-6.834h6.874c0.829,0,1.5-0.671,1.5-1.5s-0.671-1.5-1.5-1.5h-6.874
		v-7.11h3.02c0.829,0,1.5-0.671,1.5-1.5s-0.671-1.5-1.5-1.5h-3.02v-6.778h6.874c0.829,0,1.5-0.671,1.5-1.5s-0.671-1.5-1.5-1.5
		h-6.874v-7.11h3.02c0.829,0,1.5-0.671,1.5-1.5s-0.671-1.5-1.5-1.5h-3.02V13h13.748V77z"/>
</g>
</svg>
