<?xml version="1.0" encoding="utf-8"?>
<!-- Generator: Adobe Illustrator 22.0.1, SVG Export Plug-In . SVG Version: 6.00 Build 0)  -->
<svg version="1.1" xmlns="http://www.w3.org/2000/svg" xmlns:xlink="http://www.w3.org/1999/xlink" x="0px" y="0px"
	 viewBox="0 0 90 90" enable-background="new 0 0 90 90" xml:space="preserve">
<g id="Layer_2">
</g>
<g id="Layer_1">
	<path d="M59.727,9.601c-5.347,0-10.367,1.392-14.727,3.824c-4.36-2.433-9.38-3.824-14.727-3.824C13.554,9.601,0,23.156,0,39.875
		C0,53.08,8.458,64.305,20.25,68.442v11.956L30.3,70.147c5.337-0.005,10.348-1.395,14.7-3.823c4.36,2.433,9.38,3.824,14.727,3.824
		c0.095,0,0.188-0.006,0.283-0.007l10.054,10.257V68.335C81.693,64.111,90,52.963,90,39.875C90,23.156,76.446,9.601,59.727,9.601z
		 M69.039,65.516c-1.186,0.431-1.976,1.558-1.976,2.82v4.716l-4.911-5.011c-0.565-0.576-1.337-0.9-2.142-0.9
		c-0.009,0-0.018,0-0.027,0c-0.071,0.001-0.141,0.003-0.212,0.005l-0.044,0.002c-4.64,0-9.227-1.191-13.265-3.444
		c-0.454-0.254-0.958-0.38-1.462-0.38s-1.008,0.127-1.462,0.38c-4.03,2.249-8.608,3.439-13.241,3.443
		c-0.805,0.001-1.576,0.325-2.14,0.9l-4.908,5.006v-4.611c0-1.274-0.805-2.409-2.007-2.831C10.331,61.783,3,51.439,3,39.875
		c0-15.039,12.235-27.273,27.273-27.273c4.64,0,9.227,1.191,13.265,3.444c0.454,0.253,0.958,0.38,1.462,0.38s1.008-0.127,1.462-0.38
		c4.038-2.253,8.625-3.444,13.265-3.444C74.765,12.601,87,24.837,87,39.875C87,51.308,79.782,61.613,69.039,65.516z"/>
	<g>
		<path d="M38.092,61.533c-0.411,0-0.82-0.167-1.116-0.497c-5.224-5.81-8.101-13.316-8.101-21.137c0-7.825,2.88-15.334,8.109-21.146
			c0.554-0.616,1.503-0.666,2.119-0.112s0.666,1.503,0.112,2.119c-4.733,5.26-7.339,12.057-7.339,19.139
			c0,7.079,2.604,13.873,7.332,19.131c0.554,0.616,0.504,1.564-0.112,2.118C38.808,61.406,38.449,61.533,38.092,61.533z"/>
	</g>
</g>
</svg>
