<?xml version="1.0" encoding="utf-8"?>
<!-- Generator: Adobe Illustrator 22.0.1, SVG Export Plug-In . SVG Version: 6.00 Build 0)  -->
<svg version="1.1" xmlns="http://www.w3.org/2000/svg" xmlns:xlink="http://www.w3.org/1999/xlink" x="0px" y="0px"
	 viewBox="0 0 90 90" enable-background="new 0 0 90 90" xml:space="preserve">
<g id="Layer_2">
</g>
<g id="Layer_1">
	<path d="M59.765,5.085v27.981l-14.74,10.21L29.045,32.78L15.406,4.913L0.109,35.21h27.179l-0.003,0.004l16.261,10.681v8.891
		c-7.683,0.754-13.688,7.23-13.688,15.112c0,8.388,6.8,15.188,15.188,15.188s15.188-6.8,15.188-15.188
		c0-7.881-6.004-14.358-13.688-15.112V45.87l15.392-10.66h27.952V5.085H59.765z M15.364,11.652L25.426,32.21H4.984L15.364,11.652z
		 M86.89,32.21H62.765V8.085H86.89V32.21z M45.047,82.085c-6.72,0-12.188-5.467-12.188-12.188S38.326,57.71,45.047,57.71
		s12.188,5.467,12.188,12.188S51.767,82.085,45.047,82.085z"/>
</g>
</svg>
