<?xml version="1.0" encoding="utf-8"?>
<!-- Generator: Adobe Illustrator 22.0.1, SVG Export Plug-In . SVG Version: 6.00 Build 0)  -->
<svg version="1.1" xmlns="http://www.w3.org/2000/svg" xmlns:xlink="http://www.w3.org/1999/xlink" x="0px" y="0px"
	 viewBox="0 0 90 90" enable-background="new 0 0 90 90" xml:space="preserve">
<g id="Layer_2">
</g>
<g id="Layer_1">
	<path d="M77.003,3.015v83.97H12.997V3.015H77.003 M80.003,0.015H9.997v89.97h70.006V0.015L80.003,0.015z"/>
	<path d="M59.628,12.485h-40c-0.829,0-1.5-0.671-1.5-1.5s0.671-1.5,1.5-1.5h40c0.829,0,1.5,0.671,1.5,1.5
		S60.457,12.485,59.628,12.485z"/>
	<path d="M39.628,42.61h-20c-0.829,0-1.5-0.671-1.5-1.5s0.671-1.5,1.5-1.5h20c0.829,0,1.5,0.671,1.5,1.5S40.457,42.61,39.628,42.61z
		"/>
	<path d="M39.628,72.485h-20c-0.829,0-1.5-0.671-1.5-1.5s0.671-1.5,1.5-1.5h20c0.829,0,1.5,0.671,1.5,1.5
		S40.457,72.485,39.628,72.485z"/>
	<path d="M49.753,22.735H19.628c-0.829,0-1.5-0.671-1.5-1.5s0.671-1.5,1.5-1.5h30.125c0.829,0,1.5,0.671,1.5,1.5
		S50.582,22.735,49.753,22.735z"/>
	<path d="M59.628,32.61h-40c-0.829,0-1.5-0.671-1.5-1.5s0.671-1.5,1.5-1.5h40c0.829,0,1.5,0.671,1.5,1.5S60.457,32.61,59.628,32.61z
		"/>
	<path d="M49.753,62.36H19.628c-0.829,0-1.5-0.671-1.5-1.5s0.671-1.5,1.5-1.5h30.125c0.829,0,1.5,0.671,1.5,1.5
		S50.582,62.36,49.753,62.36z"/>
	<path d="M59.628,52.735h-40c-0.829,0-1.5-0.671-1.5-1.5s0.671-1.5,1.5-1.5h40c0.829,0,1.5,0.671,1.5,1.5
		S60.457,52.735,59.628,52.735z"/>
</g>
</svg>
