<?xml version="1.0" encoding="utf-8"?>
<!-- Generator: Adobe Illustrator 22.0.1, SVG Export Plug-In . SVG Version: 6.00 Build 0)  -->
<svg version="1.1" xmlns="http://www.w3.org/2000/svg" xmlns:xlink="http://www.w3.org/1999/xlink" x="0px" y="0px"
	 viewBox="0 0 90 90" enable-background="new 0 0 90 90" xml:space="preserve">
<g id="Layer_2">
</g>
<g id="Layer_1">
	<path d="M49.833,50.042v20.005h20V50.042H49.833z M57.713,60.044l-4.879,4.88v-9.76L57.713,60.044z M54.953,53.042h9.761
		l-4.88,4.881L54.953,53.042z M59.834,62.165l4.88,4.881h-9.76L59.834,62.165z M61.954,60.044l4.879-4.88v9.76L61.954,60.044z"/>
	<path d="M19.667,50.042v20.005h20V50.042H19.667z M27.546,60.044l-4.879,4.88v-9.76L27.546,60.044z M24.786,53.042h9.761
		l-4.88,4.881L24.786,53.042z M29.667,62.165l4.88,4.881h-9.76L29.667,62.165z M31.787,60.044l4.879-4.88v9.76L31.787,60.044z"/>
	<g>
		<path d="M64.75,26.499H24.917c-0.828,0-1.5-0.671-1.5-1.5s0.672-1.5,1.5-1.5H64.75c0.828,0,1.5,0.671,1.5,1.5
			S65.578,26.499,64.75,26.499z"/>
	</g>
	<g>
		<path d="M50,33.497H39.667c-0.828,0-1.5-0.671-1.5-1.5s0.672-1.5,1.5-1.5H50c0.828,0,1.5,0.671,1.5,1.5S50.828,33.497,50,33.497z"
			/>
	</g>
	<path d="M10,10v6.667v24.326c0,0.002,0,0.003,0,0.005s0,0.003,0,0.005V80h70V16.667V10H10z M77,16.667v22.831H13V16.667H77z M13,77
		V42.498h64V77H13z"/>
</g>
</svg>
