<?xml version="1.0" encoding="utf-8"?>
<!-- Generator: Adobe Illustrator 22.0.1, SVG Export Plug-In . SVG Version: 6.00 Build 0)  -->
<svg version="1.1" xmlns="http://www.w3.org/2000/svg" xmlns:xlink="http://www.w3.org/1999/xlink" x="0px" y="0px"
	 viewBox="0 0 90 90" enable-background="new 0 0 90 90" xml:space="preserve">
<g id="Layer_2">
</g>
<g id="Layer_1">
	<path d="M50.586,11.948c-13.787,0-24.964,11.177-24.964,24.964c0,7.563,3.368,14.335,8.68,18.913l-19.42,19.672
		c-0.582,0.589-0.576,1.539,0.014,2.121c0.292,0.289,0.673,0.433,1.054,0.433c0.387,0,0.774-0.149,1.067-0.446l19.687-19.943
		c3.97,2.661,8.744,4.215,13.882,4.215c13.787,0,24.964-11.177,24.964-24.964S64.374,11.948,50.586,11.948z M50.586,58.877
		c-4.308,0-8.327-1.252-11.722-3.403c-0.856-0.543-1.673-1.142-2.444-1.794c-4.765-4.032-7.799-10.051-7.799-16.767
		c0-12.111,9.853-21.964,21.964-21.964s21.964,9.853,21.964,21.964C72.551,49.024,62.698,58.877,50.586,58.877z"/>
	<g>
		<path d="M50.594,30.6c3.471,0,7.674,3.712,10.106,6.334c-2.427,2.609-6.617,6.293-10.106,6.293c-3.47,0-7.667-3.687-10.099-6.296
			C42.927,34.308,47.125,30.6,50.594,30.6 M50.594,27.6c-6.942,0-14.044,9.336-14.044,9.336s7.102,9.291,14.044,9.291
			s14.049-9.291,14.049-9.291S57.536,27.6,50.594,27.6L50.594,27.6z"/>
	</g>
	<circle cx="50.586" cy="36.913" r="3.245"/>
</g>
</svg>
