<?xml version="1.0" encoding="utf-8"?>
<!-- Generator: Adobe Illustrator 22.0.1, SVG Export Plug-In . SVG Version: 6.00 Build 0)  -->
<svg version="1.1" xmlns="http://www.w3.org/2000/svg" xmlns:xlink="http://www.w3.org/1999/xlink" x="0px" y="0px"
	 viewBox="0 0 90 90" enable-background="new 0 0 90 90" xml:space="preserve">
<g id="Layer_2">
</g>
<g id="Layer_1">
	<path d="M76.824,26.625c-2.715,0-4.917,2.201-4.917,4.917c0,2.189,1.44,4.022,3.417,4.659v25.43
		c-6.709-22.438-24.358-40.144-46.765-46.923h25.392c0.637,1.977,2.47,3.417,4.659,3.417c2.715,0,4.917-2.201,4.917-4.917
		s-2.201-4.917-4.917-4.917c-2.189,0-4.022,1.44-4.659,3.417H8.444v0.005c-0.061,0-0.121-0.005-0.183-0.005v70h67.062h2.938h0.062
		V36.201c1.977-0.637,3.417-2.47,3.417-4.659C81.741,28.826,79.539,26.625,76.824,26.625z M58.61,11.292
		c1.057,0,1.917,0.86,1.917,1.917s-0.86,1.917-1.917,1.917c-0.446,0-0.852-0.16-1.179-0.417c-0.446-0.351-0.738-0.89-0.738-1.5
		s0.292-1.149,0.738-1.5C57.758,11.451,58.164,11.292,58.61,11.292z M11.26,78.708V14.774c34.562,1.531,62.403,29.372,63.934,63.934
		H11.26z M78.324,32.721c-0.351,0.446-0.89,0.738-1.5,0.738s-1.149-0.292-1.5-0.738c-0.257-0.326-0.417-0.732-0.417-1.179
		c0-1.057,0.86-1.917,1.917-1.917s1.917,0.86,1.917,1.917C78.741,31.988,78.581,32.395,78.324,32.721z"/>
</g>
</svg>
